<svg width="764" height="372" viewBox="0 0 764 372" fill="none" xmlns="http://www.w3.org/2000/svg">
<path d="M185.57 371.167C136.011 371.167 89.4195 351.882 54.3385 316.829C19.2849 281.775 0 235.183 0 185.597C0 136.039 19.2849 89.4474 54.3385 54.3664C89.4195 19.3128 136.011 0.027832 185.57 0.027832C230.678 0.027832 274.165 16.4008 308.01 46.1249C309.713 47.6358 309.878 50.2182 308.394 51.9489C306.883 53.6521 304.301 53.8169 302.57 52.3335C270.237 23.928 228.672 8.26927 185.57 8.26927C138.236 8.26927 93.6776 26.7026 60.1625 60.1903C26.6748 93.7055 8.24143 138.237 8.24143 185.597C8.24143 232.986 26.6748 277.517 60.1625 311.005C93.6776 344.492 138.209 362.926 185.57 362.926C219.277 362.926 252.05 353.448 280.319 335.537C330.014 304.082 358.008 242.546 385.122 183.043C412.484 122.99 440.752 60.8771 491.601 28.708C521.243 9.94503 555.527 0.027832 590.746 0.027832C640.332 0.027832 686.923 19.3128 721.977 54.3664C735.081 67.4702 746.097 82.3598 754.723 98.6229C755.794 100.628 755.025 103.128 753.02 104.2C751.014 105.271 748.514 104.502 747.443 102.496C739.202 86.9475 728.68 72.7173 716.153 60.1903C682.665 26.7026 638.134 8.26927 590.746 8.26927C557.093 8.26927 524.32 17.7469 495.997 35.6583C447.208 66.5087 419.461 127.495 392.594 186.449C365.013 247.051 336.47 309.686 284.714 342.487C255.127 361.25 220.843 371.167 185.57 371.167Z" fill="url(#paint0_linear_102_500)"/>
<path d="M313.065 39.8064C318.12 44.4217 318.504 52.251 313.889 57.3058C309.274 62.3605 301.445 62.7451 296.39 58.1299C291.335 53.5147 290.951 45.6853 295.566 40.6306C300.153 35.5758 307.983 35.1912 313.065 39.8064Z" fill="url(#paint1_linear_102_500)"/>
<path d="M739.587 105.683C742.664 111.782 750.136 114.227 756.234 111.15C762.333 108.073 764.778 100.601 761.701 94.5022C758.624 88.4036 751.152 85.9586 745.054 89.0354C738.955 92.1122 736.51 99.5845 739.587 105.683Z" fill="url(#paint2_linear_102_500)"/>
<defs>
<linearGradient id="paint0_linear_102_500" x1="0.0208783" y1="185.617" x2="760.362" y2="185.617" gradientUnits="userSpaceOnUse">
<stop stop-color="#4D4D4D"/>
<stop offset="0.6447" stop-color="#24B7C1"/>
<stop offset="0.7005" stop-color="#16CABD"/>
</linearGradient>
<linearGradient id="paint1_linear_102_500" x1="0.0183189" y1="48.9715" x2="760.368" y2="48.9715" gradientUnits="userSpaceOnUse">
<stop offset="0.171875" stop-color="#313335"/>
<stop offset="0.6447" stop-color="#24B7C1"/>
<stop offset="0.7005" stop-color="#16CABD"/>
</linearGradient>
<linearGradient id="paint2_linear_102_500" x1="0.0200277" y1="100.094" x2="760.365" y2="100.094" gradientUnits="userSpaceOnUse">
<stop offset="0.2609" stop-color="#7B3DD9"/>
<stop offset="0.3807" stop-color="#6260D2"/>
<stop offset="0.6447" stop-color="#24B7C1"/>
<stop offset="0.7005" stop-color="#16CABD"/>
</linearGradient>
</defs>
</svg>
