<svg width="770" height="372" viewBox="0 0 770 372" fill="none" xmlns="http://www.w3.org/2000/svg">
<path d="M583.526 371.167C538.418 371.167 494.931 354.794 461.086 325.042C459.383 323.531 459.218 320.949 460.702 319.218C462.213 317.515 464.795 317.35 466.526 318.834C498.86 347.239 540.396 362.898 583.499 362.898C630.832 362.898 675.391 344.464 708.906 310.977C742.394 277.462 760.827 232.93 760.827 185.57C760.827 138.181 742.394 93.6502 708.906 60.1625C675.391 26.6748 630.86 8.24143 583.499 8.24143C549.792 8.24143 517.018 17.7191 488.777 35.6305C439.082 67.1127 411.061 128.621 383.974 188.097C356.64 248.15 328.344 310.235 277.467 342.432C247.88 361.195 213.596 371.139 178.35 371.139C128.764 371.139 82.1727 351.854 47.1191 316.801C30.7186 300.4 17.6972 281.335 8.41185 260.182C7.50529 258.094 8.43929 255.677 10.5271 254.743C12.6149 253.836 15.0325 254.77 15.9665 256.858C24.8398 277.077 37.2843 295.291 52.9705 310.977C86.4582 344.464 130.989 362.898 178.378 362.898C212.058 362.898 244.804 353.42 273.099 335.481C321.916 304.603 349.662 243.644 376.502 184.691C404.083 124.116 432.626 61.4536 484.41 28.6802C513.969 9.9172 548.253 0 583.526 0C633.085 0 679.677 19.285 714.758 54.3385C749.811 89.3921 769.096 135.984 769.096 185.57C769.096 235.128 749.811 281.72 714.758 316.801C679.677 351.882 633.085 371.167 583.526 371.167Z" fill="url(#paint0_linear_102_507)"/>
<path d="M1.05026 263.781C-1.53205 257.435 1.51727 250.21 7.86317 247.627C14.2091 245.045 21.4341 248.094 24.0164 254.44C26.5987 260.786 23.5494 268.011 17.2035 270.594C10.8576 273.176 3.63258 270.099 1.05026 263.781Z" fill="url(#paint1_linear_102_507)"/>
<path d="M472.763 313.092C467.708 308.477 459.851 308.861 455.263 313.916C450.648 318.971 451.033 326.828 456.088 331.416C461.142 336.031 468.999 335.646 473.587 330.591C478.202 325.537 477.817 317.68 472.763 313.092Z" fill="url(#paint2_linear_102_507)"/>
<defs>
<linearGradient id="paint0_linear_102_507" x1="3.72961" y1="185.617" x2="769.088" y2="185.617" gradientUnits="userSpaceOnUse">
<stop offset="0.3575" stop-color="#16CABD"/>
<stop offset="0.5472" stop-color="#84848B"/>
<stop offset="0.984375" stop-color="#696767"/>
</linearGradient>
<linearGradient id="paint1_linear_102_507" x1="3.73093" y1="259.103" x2="769.093" y2="259.103" gradientUnits="userSpaceOnUse">
<stop offset="0.3575" stop-color="#16CABD"/>
<stop offset="0.5472" stop-color="#84848B"/>
<stop offset="0.7095" stop-color="#DC4C64"/>
<stop offset="0.7826" stop-color="#FF3654"/>
</linearGradient>
<linearGradient id="paint2_linear_102_507" x1="3.73027" y1="322.262" x2="769.09" y2="322.262" gradientUnits="userSpaceOnUse">
<stop offset="0.3575" stop-color="#696767"/>
<stop offset="0.5472" stop-color="#84848B"/>
<stop offset="0.7826" stop-color="#696767"/>
</linearGradient>
</defs>
</svg>
